# xmcd
#
# Track frame offsets:
#	150
#	9828
#	21380
#	37058
#	46512
#	62714
#	75804
#	86982
#	96887
#	110614
#	120141
#	135331
#	144522
#	161137
#
# Disc length: 2307 seconds
#
# Revision: 0
# Processed by: cddbd v1.5.2PL0 Copyright (c) Steve Scherf et al.
# Submitted via: dBpowerAMP V4.0
#
DISCID=a509010e
DTITLE=K.M. Williams - The Resurrection Of Blind Willie and Old Time Spirituals
DYEAR=2006
DGENRE=Blues
TTITLE0=Old Time Religion
TTITLE1=What IS The Soul Of A Man
TTITLE2=Rock Of Ages
TTITLE3=Nobody's Fault But Mine
TTITLE4=Go To That Land
TTITLE5=Lamp Trimmed And Burning
TTITLE6=Can't Nobody Hide From God
TTITLE7=His Blood Can Make Me Whole
TTITLE8=Rollin' Thru An Unfriendly World
TTITLE9=God Don't Ever Change
TTITLE10=Goin' Over That Hill
TTITLE11=Dark And Cold Was The Night
TTITLE12=God's Got It
TTITLE13=Live So God Can Use Me
EXTD=
EXTT0=
EXTT1=
EXTT2=
EXTT3=
EXTT4=
EXTT5=
EXTT6=
EXTT7=
EXTT8=
EXTT9=
EXTT10=
EXTT11=
EXTT12=
EXTT13=
PLAYORDER=
